<?xml version="1.0" encoding="UTF-8" standalone="no"?>
<!-- Created with Inkscape (http://www.inkscape.org/) -->

<svg
   xmlns:dc="http://purl.org/dc/elements/1.1/"
   xmlns:cc="http://creativecommons.org/ns#"
   xmlns:rdf="http://www.w3.org/1999/02/22-rdf-syntax-ns#"
   xmlns:svg="http://www.w3.org/2000/svg"
   xmlns="http://www.w3.org/2000/svg"
   xmlns:sodipodi="http://sodipodi.sourceforge.net/DTD/sodipodi-0.dtd"
   xmlns:inkscape="http://www.inkscape.org/namespaces/inkscape"
   width="240.01968"
   height="77.213158"
   viewBox="0 0 63.505205 20.429317"
   version="1.1"
   id="svg8"
   inkscape:version="0.92.4 (5da689c313, 2019-01-14)"
   sodipodi:docname="logo.svg"
   inkscape:export-filename="C:\Users\Kaloyan\Documents\F\cveti\courses\images\vectorized\logo.png"
   inkscape:export-xdpi="80"
   inkscape:export-ydpi="80">
  <defs
     id="defs2" />
  <sodipodi:namedview
     id="base"
     pagecolor="#ffffff"
     bordercolor="#666666"
     borderopacity="1.0"
     inkscape:pageopacity="0.0"
     inkscape:pageshadow="2"
     inkscape:zoom="5.6568542"
     inkscape:cx="74.195675"
     inkscape:cy="62.236853"
     inkscape:document-units="mm"
     inkscape:current-layer="layer1"
     showgrid="false"
     inkscape:window-width="2560"
     inkscape:window-height="1013"
     inkscape:window-x="-9"
     inkscape:window-y="29"
     inkscape:window-maximized="1"
     showguides="true"
     inkscape:guide-bbox="true"
     fit-margin-top="1"
     fit-margin-bottom="1"
     fit-margin-left="1"
     fit-margin-right="19.3"
     units="px">
    <sodipodi:guide
       position="53.623519,9.860295"
       orientation="0,1"
       id="guide845"
       inkscape:locked="false" />
    <sodipodi:guide
       position="53.623514,5.6414253"
       orientation="0,1"
       inkscape:locked="false"
       id="guide847" />
  </sodipodi:namedview>
  <metadata
     id="metadata5">
    <rdf:RDF>
      <cc:Work
         rdf:about="">
        <dc:format>image/svg+xml</dc:format>
        <dc:type
           rdf:resource="http://purl.org/dc/dcmitype/StillImage" />
        <dc:title></dc:title>
      </cc:Work>
    </rdf:RDF>
  </metadata>
  <g
     inkscape:label="Layer 1"
     inkscape:groupmode="layer"
     id="layer1"
     transform="translate(-128.20989,-178.14403)">
    <g
       transform="rotate(-72,46.900759,129.1847)"
       id="g958"
       style="fill:#f57d28;fill-opacity:1" />
    <g
       id="g4665"
       transform="rotate(-144,20.662946,157.59665)"
       style="fill:#f57d28;fill-opacity:1" />
    <g
       transform="rotate(144,4.4470887,175.1562)"
       id="g4669"
       style="fill:#f57d28;fill-opacity:1" />
    <g
       id="g4673"
       transform="rotate(72,-21.79071,203.56815)"
       style="fill:#f57d28;fill-opacity:1" />
    <g
       id="g4765"
       transform="matrix(-0.98302616,0.03259334,0.03259334,0.98302616,218.55228,13.109309)"
       style="fill:#f57d28;fill-opacity:1">
      <path
         inkscape:connector-curvature="0"
         id="path4755"
         d="m 77.557963,178.01385 c 2.644609,0.25191 4.876838,2.39488 5.981053,4.50319 1.061465,-2.02802 3.172759,-3.89454 5.685261,-4.25687 l 0.336572,1.02493 c -2.646066,0.26406 -4.75026,2.37415 -5.461245,4.55919 -0.05671,0.26723 -0.288316,0.4582 -0.556782,0.45891 -0.270849,5.6e-4 -0.504979,-0.19222 -0.560587,-0.46217 -6e-6,-10e-4 -6e-6,-0.003 0,-0.004 -0.671685,-2.05597 -2.573882,-4.2265 -5.000161,-4.69404 -0.211282,-0.36794 -0.32736,-0.74481 -0.424111,-1.12879 z"
         style="color:#000000;font-style:normal;font-variant:normal;font-weight:normal;font-stretch:normal;font-size:medium;line-height:normal;font-family:sans-serif;font-variant-ligatures:normal;font-variant-position:normal;font-variant-caps:normal;font-variant-numeric:normal;font-variant-alternates:normal;font-feature-settings:normal;text-indent:0;text-align:start;text-decoration:none;text-decoration-line:none;text-decoration-style:solid;text-decoration-color:#000000;letter-spacing:normal;word-spacing:normal;text-transform:none;writing-mode:lr-tb;direction:ltr;text-orientation:mixed;dominant-baseline:auto;baseline-shift:baseline;text-anchor:start;white-space:normal;shape-padding:0;clip-rule:nonzero;display:inline;overflow:visible;visibility:visible;opacity:1;isolation:auto;mix-blend-mode:normal;color-interpolation:sRGB;color-interpolation-filters:linearRGB;solid-color:#000000;solid-opacity:1;vector-effect:none;fill:#f57d28;fill-opacity:1;fill-rule:nonzero;stroke:none;stroke-width:1.06261134;stroke-linecap:butt;stroke-linejoin:round;stroke-miterlimit:4;stroke-dasharray:none;stroke-dashoffset:0;stroke-opacity:1;paint-order:stroke fill markers;color-rendering:auto;image-rendering:auto;shape-rendering:auto;text-rendering:auto;enable-background:accumulate" />
      <path
         style="color:#000000;font-style:normal;font-variant:normal;font-weight:normal;font-stretch:normal;font-size:medium;line-height:normal;font-family:sans-serif;font-variant-ligatures:normal;font-variant-position:normal;font-variant-caps:normal;font-variant-numeric:normal;font-variant-alternates:normal;font-feature-settings:normal;text-indent:0;text-align:start;text-decoration:none;text-decoration-line:none;text-decoration-style:solid;text-decoration-color:#000000;letter-spacing:normal;word-spacing:normal;text-transform:none;writing-mode:lr-tb;direction:ltr;text-orientation:mixed;dominant-baseline:auto;baseline-shift:baseline;text-anchor:start;white-space:normal;shape-padding:0;clip-rule:nonzero;display:inline;overflow:visible;visibility:visible;opacity:1;isolation:auto;mix-blend-mode:normal;color-interpolation:sRGB;color-interpolation-filters:linearRGB;solid-color:#000000;solid-opacity:1;vector-effect:none;fill:#f57d28;fill-opacity:1;fill-rule:nonzero;stroke:none;stroke-width:1.06261134;stroke-linecap:butt;stroke-linejoin:round;stroke-miterlimit:4;stroke-dasharray:none;stroke-dashoffset:0;stroke-opacity:1;paint-order:stroke fill markers;color-rendering:auto;image-rendering:auto;shape-rendering:auto;text-rendering:auto;enable-background:accumulate"
         d="m 81.689319,166.5936 c 0.577649,2.59302 -0.77064,5.37821 -2.434541,7.07988 2.256773,0.38282 4.684364,1.814 5.805366,4.09156 l -0.870759,0.63682 c -1.068816,-2.43496 -3.725862,-3.78411 -6.023665,-3.78508 -0.271675,0.0286 -0.524869,-0.13262 -0.608505,-0.38772 -0.08423,-0.25742 0.02676,-0.53967 0.266319,-0.67597 9.49e-4,-3.2e-4 0.0029,-9.3e-4 0.0038,-0.001 1.747782,-1.27414 3.224267,-3.75397 2.919163,-6.20597 0.284642,-0.31464 0.607197,-0.5415 0.942486,-0.75217 z"
         id="path4757"
         inkscape:connector-curvature="0" />
      <path
         inkscape:connector-curvature="0"
         id="path4759"
         d="m 93.827279,166.9937 c -2.287606,1.35067 -5.353123,0.92904 -7.485681,-0.12758 0.333298,2.26462 -0.277668,5.01565 -2.097348,6.78559 l -0.874731,-0.63135 c 1.985502,-1.76895 2.447548,-4.71286 1.73841,-6.8985 -0.111152,-0.24954 -0.03606,-0.54016 0.180705,-0.69854 0.218793,-0.15965 0.521526,-0.14131 0.725183,0.0444 5.98e-4,8.1e-4 0.0018,0.002 0.0021,0.003 1.751874,1.26851 4.566591,1.90642 6.8043,0.85854 0.387199,0.17348 0.702631,0.41014 1.0066,0.66392 z"
         style="color:#000000;font-style:normal;font-variant:normal;font-weight:normal;font-stretch:normal;font-size:medium;line-height:normal;font-family:sans-serif;font-variant-ligatures:normal;font-variant-position:normal;font-variant-caps:normal;font-variant-numeric:normal;font-variant-alternates:normal;font-feature-settings:normal;text-indent:0;text-align:start;text-decoration:none;text-decoration-line:none;text-decoration-style:solid;text-decoration-color:#000000;letter-spacing:normal;word-spacing:normal;text-transform:none;writing-mode:lr-tb;direction:ltr;text-orientation:mixed;dominant-baseline:auto;baseline-shift:baseline;text-anchor:start;white-space:normal;shape-padding:0;clip-rule:nonzero;display:inline;overflow:visible;visibility:visible;opacity:1;isolation:auto;mix-blend-mode:normal;color-interpolation:sRGB;color-interpolation-filters:linearRGB;solid-color:#000000;solid-opacity:1;vector-effect:none;fill:#f57d28;fill-opacity:1;fill-rule:nonzero;stroke:none;stroke-width:1.06261134;stroke-linecap:butt;stroke-linejoin:round;stroke-miterlimit:4;stroke-dasharray:none;stroke-dashoffset:0;stroke-opacity:1;paint-order:stroke fill markers;color-rendering:auto;image-rendering:auto;shape-rendering:auto;text-rendering:auto;enable-background:accumulate" />
      <path
         style="color:#000000;font-style:normal;font-variant:normal;font-weight:normal;font-stretch:normal;font-size:medium;line-height:normal;font-family:sans-serif;font-variant-ligatures:normal;font-variant-position:normal;font-variant-caps:normal;font-variant-numeric:normal;font-variant-alternates:normal;font-feature-settings:normal;text-indent:0;text-align:start;text-decoration:none;text-decoration-line:none;text-decoration-style:solid;text-decoration-color:#000000;letter-spacing:normal;word-spacing:normal;text-transform:none;writing-mode:lr-tb;direction:ltr;text-orientation:mixed;dominant-baseline:auto;baseline-shift:baseline;text-anchor:start;white-space:normal;shape-padding:0;clip-rule:nonzero;display:inline;overflow:visible;visibility:visible;opacity:1;isolation:auto;mix-blend-mode:normal;color-interpolation:sRGB;color-interpolation-filters:linearRGB;solid-color:#000000;solid-opacity:1;vector-effect:none;fill:#f57d28;fill-opacity:1;fill-rule:nonzero;stroke:none;stroke-width:1.06261134;stroke-linecap:butt;stroke-linejoin:round;stroke-miterlimit:4;stroke-dasharray:none;stroke-dashoffset:0;stroke-opacity:1;paint-order:stroke fill markers;color-rendering:auto;image-rendering:auto;shape-rendering:auto;text-rendering:auto;enable-background:accumulate"
         d="m 97.197605,178.66123 c -1.991473,-1.75826 -2.537776,-4.80403 -2.191867,-7.15873 -2.050787,1.01679 -4.855971,1.28585 -7.101596,0.10217 l 0.330143,-1.02702 c 2.295925,1.34169 5.23853,0.87141 7.098061,-0.47842 0.202979,-0.18283 0.50258,-0.20122 0.720192,-0.044 0.219447,0.15875 0.295555,0.45233 0.181867,0.70341 -5.85e-4,8.1e-4 -0.0013,0.002 -0.0022,0.003 -0.665066,2.05812 -0.401959,4.9322 1.286124,6.73658 -0.04534,0.42185 -0.172941,0.79498 -0.320369,1.16249 z"
         id="path4761"
         inkscape:connector-curvature="0" />
      <path
         inkscape:connector-curvature="0"
         id="path4763"
         d="m 87.14261,185.47207 c 1.056806,-2.43734 3.784688,-3.8981 6.131033,-4.29676 -1.600753,-1.63621 -2.723494,-4.22095 -2.291683,-6.72245 l 1.078774,-0.003 c -0.566544,2.59816 0.790034,5.25142 2.648426,6.60282 0.236605,0.13654 0.346677,0.4158 0.264398,0.67134 -0.08317,0.25777 -0.33886,0.42087 -0.612783,0.39034 -9.51e-4,-3.1e-4 -0.0023,-6.2e-4 -0.0035,-0.001 -2.162905,0.003 -4.815013,1.14185 -6.009434,3.30489 -0.415214,0.0872 -0.809513,0.0812 -1.204593,0.0545 z"
         style="color:#000000;font-style:normal;font-variant:normal;font-weight:normal;font-stretch:normal;font-size:medium;line-height:normal;font-family:sans-serif;font-variant-ligatures:normal;font-variant-position:normal;font-variant-caps:normal;font-variant-numeric:normal;font-variant-alternates:normal;font-feature-settings:normal;text-indent:0;text-align:start;text-decoration:none;text-decoration-line:none;text-decoration-style:solid;text-decoration-color:#000000;letter-spacing:normal;word-spacing:normal;text-transform:none;writing-mode:lr-tb;direction:ltr;text-orientation:mixed;dominant-baseline:auto;baseline-shift:baseline;text-anchor:start;white-space:normal;shape-padding:0;clip-rule:nonzero;display:inline;overflow:visible;visibility:visible;opacity:1;isolation:auto;mix-blend-mode:normal;color-interpolation:sRGB;color-interpolation-filters:linearRGB;solid-color:#000000;solid-opacity:1;vector-effect:none;fill:#f57d28;fill-opacity:1;fill-rule:nonzero;stroke:none;stroke-width:1.06261134;stroke-linecap:butt;stroke-linejoin:round;stroke-miterlimit:4;stroke-dasharray:none;stroke-dashoffset:0;stroke-opacity:1;paint-order:stroke fill markers;color-rendering:auto;image-rendering:auto;shape-rendering:auto;text-rendering:auto;enable-background:accumulate" />
    </g>
    <g
       id="g952"
       transform="translate(0.14097676)"
       style="fill:#f57d28;fill-opacity:1">
      <g
         transform="matrix(0.96509135,0,0,0.96509135,4.7716189,8.6399387)"
         style="fill:#f57d28;fill-opacity:1"
         id="g895">
        <path
           sodipodi:nodetypes="ccccsccccccccccsccccc"
           inkscape:connector-curvature="0"
           id="path874"
           style="font-style:normal;font-variant:normal;font-weight:normal;font-stretch:normal;font-size:8.06960011px;line-height:1.25;font-family:Garde;-inkscape-font-specification:Garde;letter-spacing:0px;word-spacing:0px;fill:#f57d28;fill-opacity:1;stroke:none;stroke-width:0.28819999"
           d="m 156.88423,177.9949 c 0.37659,0.0161 0.72896,0.10221 1.05712,0.25823 0.32817,0.15063 0.61329,0.35505 0.85538,0.61328 0.24747,0.25285 0.44114,0.54874 0.58101,0.88766 0.13987,0.33355 0.20981,0.68861 0.20981,1.06519 0,0.38196 -0.0699,0.7424 -0.20981,1.08132 -0.13987,0.33355 -0.33354,0.62943 -0.58101,0.88766 -0.24209,0.25285 -0.52721,0.45728 -0.85538,0.61329 -0.32816,0.15063 -0.68053,0.23402 -1.05712,0.25016 h -3.46992 v -4.08292 l 1.88828,0.6691 v 1.52553 l 1.58164,-0.008 c 0.24209,-0.0215 0.44115,-0.12106 0.59716,-0.29857 0.16139,-0.17753 0.24208,-0.38734 0.24208,-0.62943 0,-0.20443 -0.0592,-0.38466 -0.17753,-0.54067 -0.11297,-0.16139 -0.26092,-0.27705 -0.44383,-0.34699 -0.0699,-0.0269 -3.6878,-1.31525 -3.6878,-1.31525 v -0.62943 z" />
        <path
           sodipodi:nodetypes="cssssccccccscccsccccccc"
           inkscape:connector-curvature="0"
           id="path876"
           style="font-style:normal;font-variant:normal;font-weight:normal;font-stretch:normal;font-size:8.06960011px;line-height:1.25;font-family:Garde;-inkscape-font-specification:Garde;letter-spacing:0px;word-spacing:0px;fill:#f57d28;fill-opacity:1;stroke:none;stroke-width:0.28819999"
           d="m 166.80076,180.59331 c 0,0.41962 -0.0807,0.81503 -0.24209,1.18623 -0.16139,0.3712 -0.38196,0.69667 -0.66171,0.97642 -0.27437,0.27437 -0.59715,0.49225 -0.96835,0.65364 -0.3712,0.16139 -0.7693,0.24209 -1.1943,0.24209 -0.41424,0 -0.80427,-0.0753 -1.17009,-0.22595 -0.36582,-0.15601 -0.68591,-0.36582 -0.96028,-0.62943 -0.27437,-0.26899 -0.49494,-0.58101 -0.66171,-0.93607 -0.16139,-0.36045 -0.25016,-0.74779 -0.2663,-1.16203 v -2.70331 h 1.84794 v 2.59841 c 0,0.16677 0.0323,0.32548 0.0968,0.47611 0.0645,0.14525 0.15061,0.27167 0.25822,0.37927 0.10759,0.10759 0.23402,0.19367 0.37927,0.25822 0.15063,0.0645 0.30934,0.0968 0.47611,0.0968 0.16677,0 0.32279,-0.0296 0.46804,-0.0888 0.14525,-0.0645 0.27168,-0.14792 0.37927,-0.25015 0.10759,-0.1076 0.19367,-0.23403 0.25823,-0.37928 0.0645,-0.14525 0.0995,-0.29857 0.1049,-0.45996 v -2.63069 h 1.85608 z" />
        <path
           sodipodi:nodetypes="ccccccccc"
           inkscape:connector-curvature="0"
           id="path878"
           style="font-style:normal;font-variant:normal;font-weight:normal;font-stretch:normal;font-size:8.06960011px;line-height:1.25;font-family:Garde;-inkscape-font-specification:Garde;letter-spacing:0px;word-spacing:0px;fill:#f57d28;fill-opacity:1;stroke:none;stroke-width:0.28819999"
           d="m 167.88916,177.9949 h 6.17325 v 1.88828 l -2.14645,-0.008 v 3.77693 h -1.88828 v -3.76851 h -2.13845 z" />
        <path
           sodipodi:nodetypes="ccsccsccscccccccccscccccc"
           inkscape:connector-curvature="0"
           id="path880"
           style="font-style:normal;font-variant:normal;font-weight:normal;font-stretch:normal;font-size:8.06960011px;line-height:1.25;font-family:Garde;-inkscape-font-specification:Garde;letter-spacing:0px;word-spacing:0px;fill:#f57d28;fill-opacity:1;stroke:none;stroke-width:0.28819999"
           d="m 181.32403,179.89125 h -3.46993 c -0.11835,0.0107 -0.22864,0.043 -0.33085,0.0968 -0.10221,0.0538 -0.19098,0.12374 -0.2663,0.20981 -0.0753,0.0807 -0.13449,0.17753 -0.17753,0.2905 -0.043,0.1076 -0.0645,0.22058 -0.0645,0.33893 0,0.12373 0.0215,0.2394 0.0645,0.34699 0.0431,0.10221 0.10224,0.19636 0.17753,0.28244 0.0753,0.0807 0.16409,0.14794 0.2663,0.20174 0.10221,0.0538 0.2125,0.0888 0.33085,0.1049 h 2.21107 l 0.62943,-7e-5 h 0.62943 v 1.88829 h -3.46993 c -0.37658,-0.0161 -0.72895,-0.0995 -1.05711,-0.25016 -0.32817,-0.15601 -0.61598,-0.36044 -0.86345,-0.61329 -0.24209,-0.25823 -0.43307,-0.55411 -0.57294,-0.88766 -0.13987,-0.33354 -0.20981,-0.69129 -0.20981,-1.07325 0,-0.38196 0.0699,-0.73971 0.20981,-1.07326 0.13987,-0.33892 0.33085,-0.63481 0.57294,-0.88766 0.24747,-0.25285 0.53528,-0.45459 0.86345,-0.60522 0.32816,-0.15601 0.68053,-0.24208 1.05711,-0.25822 l 3.46993,-0.008 z" />
        <path
           sodipodi:nodetypes="ccccccccccccccc"
           inkscape:connector-curvature="0"
           id="path882"
           style="font-style:normal;font-variant:normal;font-weight:normal;font-stretch:normal;font-size:8.06960011px;line-height:1.25;font-family:Garde;-inkscape-font-specification:Garde;letter-spacing:0px;word-spacing:0px;fill:#f57d28;fill-opacity:1;stroke:none;stroke-width:0.28819999"
           d="m 186.52602,177.9949 h 1.88829 v 5.65338 h -1.88829 v -1.87681 l -2.22532,2.9e-4 v 1.87986 h -1.88829 v -2.51772 -0.0156 -3.12351 h 1.88829 v 1.88828 h 2.22532 z" />
      </g>
      <path
         d="m 167.59381,188.71305 q -0.0656,0.0974 -0.28432,0.48679 -0.21872,0.37862 -0.5468,0.93032 -0.31714,0.5517 -0.71083,1.23321 -0.39369,0.6707 -0.78738,1.35221 -0.47023,0.81131 -0.98422,1.70917 -0.51399,0.88706 -1.10452,1.87146 h -0.98423 l -0.86393,-1.46039 q -0.16404,-0.29207 -0.33901,-0.58415 -0.16404,-0.29207 -0.31714,-0.55169 -0.15311,-0.25963 -0.27341,-0.45435 -0.12028,-0.20553 -0.1859,-0.32452 -0.38275,0.65987 -0.73269,1.26566 -0.34995,0.59497 -0.62335,1.08176 -0.15311,0.28126 -0.30621,0.54089 -0.1531,0.2488 -0.29526,0.48679 h -0.98423 q 0.0109,-0.0324 0.13123,-0.24881 0.13123,-0.21635 0.32808,-0.5517 0.19684,-0.34616 0.43744,-0.76805 0.25151,-0.4327 0.51398,-0.87623 0.26245,-0.45434 0.51397,-0.88704 0.25154,-0.4327 0.45932,-0.78969 0.21872,-0.3678 0.36088,-0.60579 0.1531,-0.2488 0.19684,-0.32453 0.0109,0.0108 0.1203,0.19473 0.10935,0.1839 0.28432,0.48679 0.17498,0.29207 0.39369,0.67069 0.21872,0.37861 0.44838,0.76805 l 1.22482,2.0878 q 0.19684,-0.33535 0.44836,-0.76805 0.25153,-0.43271 0.52492,-0.90868 0.28433,-0.48679 0.56866,-0.9844 0.29526,-0.49761 0.56868,-0.96277 l 1.32323,-2.27171 h -0.98424 q -0.36087,0.62743 -0.67801,1.17913 -0.31714,0.54088 -0.61241,1.04931 -0.28434,0.49761 -0.56866,0.9844 -0.28433,0.47597 -0.5796,0.97358 l -1.22481,-2.05534 -1.25763,-2.13108 q -0.51398,0.87624 -0.94047,1.61183 -0.41557,0.72478 -0.8202,1.41711 -0.39369,0.68151 -0.79831,1.37384 -0.40463,0.69233 -0.87487,1.49283 -0.0109,-0.0216 -0.19685,-0.32453 -0.17498,-0.3029 -0.4593,-0.77887 -0.27339,-0.47597 -0.63428,-1.08176 -0.34994,-0.60579 -0.72176,-1.22239 -0.36089,-0.62742 -0.71083,-1.22239 -0.34995,-0.60579 -0.62334,-1.07095 -0.2734,-0.46516 -0.43744,-0.74641 -0.16404,-0.29208 -0.16404,-0.29208 h 2.95267 l 1.48728,2.53132 -0.49211,0.84378 -1.48728,-2.53133 h -0.98422 q 0.0546,0.0866 0.24059,0.41107 0.19685,0.32453 0.44836,0.76806 0.26247,0.4327 0.5468,0.93031 0.29527,0.49761 0.54678,0.94114 0.26247,0.4327 0.44838,0.75723 0.18591,0.31371 0.24059,0.40025 l 2.14342,-3.67799 0.79832,-1.37384 h 0.98422 q 0.0218,0.0432 0.14217,0.25962 0.13124,0.21636 0.30621,0.53007 0.1859,0.30289 0.40462,0.67069 0.21872,0.3678 0.42651,0.72478 0.21871,0.35698 0.40462,0.67069 0.1859,0.31372 0.3062,0.49761 0.4593,-0.77886 0.80925,-1.38465 0.36088,-0.61661 0.6124,-1.07094 l 0.52492,-0.89787 z"
         style="font-style:normal;font-variant:normal;font-weight:normal;font-stretch:normal;font-size:11.20891094px;line-height:1.25;font-family:Garde;-inkscape-font-specification:Garde;letter-spacing:0px;word-spacing:0px;fill:#f57d28;fill-opacity:1;stroke:none;stroke-width:0.38844889"
         id="path864"
         inkscape:connector-curvature="0" />
      <path
         d="m 177.07958,191.24437 h -5.74416 v 0.84378 h 4.26214 v 0.84377 h -5.10592 v -2.53132 h 5.74416 v -0.84378 h -6.58793 v 5.89561 h 6.58793 v -0.84377 h -5.74416 v -0.84378 h 6.58794 v 2.53133 h -8.27549 v -7.58316 h 8.27549 z"
         style="font-style:normal;font-variant:normal;font-weight:normal;font-stretch:normal;font-size:11.20891094px;line-height:1.25;font-family:Garde;-inkscape-font-specification:Garde;letter-spacing:0px;word-spacing:0px;fill:#f57d28;fill-opacity:1;stroke:none;stroke-width:0.38634363"
         id="path866"
         inkscape:connector-curvature="0" />
      <path
         sodipodi:nodetypes="ccccccccccccccc"
         d="m 179.13364,193.76488 h 7.47498 v 2.53133 h -8.31876 v -0.84378 h 7.4858 v -0.84377 h -7.4858 v -5.89561 h 3.40257 v 4.21887 h -0.84377 v -3.3751 h -1.71502 z"
         style="font-style:normal;font-variant:normal;font-weight:normal;font-stretch:normal;font-size:11.20891094px;line-height:1.25;font-family:Garde;-inkscape-font-specification:Garde;letter-spacing:0px;word-spacing:0px;fill:#f57d28;fill-opacity:1;stroke:none;stroke-width:0.38634363"
         id="path868"
         inkscape:connector-curvature="0" />
    </g>
    <path
       style="opacity:1;vector-effect:none;fill:#f57d28;fill-opacity:1;stroke:none;stroke-width:0.0461896;stroke-linecap:butt;stroke-linejoin:round;stroke-miterlimit:4;stroke-dasharray:none;stroke-dashoffset:0;stroke-opacity:1;paint-order:stroke fill markers"
       d="m 185.83779,188.71305 -0.78394,2.25034 c -0.0223,0.054 -0.0419,0.11045 -0.0585,0.16857 l -0.006,0.0239 c -0.0411,0.15184 -0.0623,0.31349 -0.0626,0.47653 4e-5,0.72747 0.40812,1.31716 0.9115,1.31718 0.50339,-2e-5 0.91146,-0.58972 0.9115,-1.31718 4e-5,-0.16301 -0.0209,-0.32454 -0.0616,-0.47649 l -0.008,-0.0326 c -0.0157,-0.0544 -0.0341,-0.10695 -0.0546,-0.15789 z"
       id="path855"
       inkscape:connector-curvature="0"
       sodipodi:nodetypes="ccccccccccc" />
    <path
       sodipodi:nodetypes="ccccccccccc"
       inkscape:connector-curvature="0"
       id="path885"
       d="m 185.83779,188.71305 -0.78394,-2.25033 c -0.0223,-0.0542 -0.0419,-0.11045 -0.0585,-0.16857 l -0.006,-0.0239 c -0.0411,-0.15185 -0.0623,-0.31345 -0.0626,-0.47654 4e-5,-0.72747 0.40812,-1.31712 0.9115,-1.31713 0.50339,10e-6 0.91146,0.58968 0.9115,1.31713 4e-5,0.16301 -0.0209,0.32454 -0.0616,0.4765 l -0.008,0.0326 c -0.0157,0.0544 -0.0341,0.10694 -0.0546,0.15787 z"
       style="opacity:1;vector-effect:none;fill:#f57d28;fill-opacity:1;stroke:none;stroke-width:0.0461896;stroke-linecap:butt;stroke-linejoin:round;stroke-miterlimit:4;stroke-dasharray:none;stroke-dashoffset:0;stroke-opacity:1;paint-order:stroke fill markers" />
  </g>
</svg>
