<svg width="148" height="45" viewBox="0 0 148 45" fill="none" xmlns="http://www.w3.org/2000/svg">
<g clip-path="url(#clip0)">
<path fill-rule="evenodd" clip-rule="evenodd" d="M0 1H42.6936V43.6936H0V1ZM31.5265 27.3847C29.7504 30.7627 26.1371 33.034 21.8573 33.034C19.1113 32.9026 16.5213 31.7193 14.6244 29.7294C12.7275 27.7396 11.6693 25.0959 11.6693 22.3468C11.6693 19.5977 12.7275 16.9541 14.6244 14.9642C16.5213 12.9744 19.1113 11.7911 21.8573 11.6597C26.1371 11.6597 29.7504 13.931 31.5265 17.3089L27.4485 19.5222C26.2899 17.4251 24.4557 16.1442 21.8573 16.1442C18.4794 16.1442 15.829 18.9964 15.829 22.3468C15.829 25.6973 18.4946 28.5494 21.8573 28.5494C24.4557 28.5494 26.2899 27.2685 27.4485 25.1715L31.5265 27.3847Z" fill="white"/>
<path d="M57.8623 20.4454C59.0874 20.467 60.2948 20.1513 61.3526 19.5329C62.4104 18.9145 63.2778 18.0172 63.86 16.939L61.3319 15.5665C61.0186 16.1636 60.553 16.6672 59.9822 17.0263C59.4115 17.3854 58.756 17.5872 58.0821 17.6113C57.4082 17.6354 56.74 17.4808 56.1451 17.1633C55.5502 16.8459 55.0498 16.3767 54.6947 15.8035C54.3395 15.2303 54.1423 14.5734 54.1229 13.8994C54.1035 13.2253 54.2627 12.5582 54.5843 11.9655C54.9059 11.3728 55.3785 10.8757 55.9542 10.5246C56.5299 10.1735 57.1881 9.98079 57.8623 9.9661C58.58 9.95023 59.2875 10.139 59.9019 10.5104C60.5163 10.8817 61.0123 11.4203 61.3319 12.0632L63.86 10.6906C63.3163 9.6385 62.5029 8.74971 61.5029 8.11515C60.503 7.48059 59.3524 7.12304 58.1689 7.07907C56.9855 7.0351 55.8115 7.30629 54.7673 7.8649C53.723 8.42351 52.8458 9.24949 52.2255 10.2583C51.6052 11.2672 51.2641 12.4227 51.2369 13.6067C51.2097 14.7907 51.4976 15.9606 52.0709 16.9969C52.6443 18.0331 53.4827 18.8985 54.5002 19.5044C55.5178 20.1103 56.678 20.435 57.8623 20.4454Z" fill="white"/>
<path d="M70.2124 20.4454C73.2999 20.4454 75.4857 18.3484 75.4857 15.1508V7.40137H72.6152V15.1875C72.6152 16.7159 71.6583 17.6636 70.2124 17.6636C68.7664 17.6636 67.8096 16.7221 67.8096 15.1875V7.40137H64.9361V15.1508C64.9361 18.3484 67.1218 20.4454 70.2124 20.4454Z" fill="white"/>
<path d="M77.8212 20.2284H86.0047V17.4802H80.6947V7.40137H77.8212V20.2284Z" fill="white"/>
<path d="M88.6001 20.2284H91.492V10.1465H94.7965V7.40137H85.3322V10.1465H88.6001V20.2284Z" fill="white"/>
<path d="M101.681 20.4454C104.768 20.4454 106.954 18.3484 106.954 15.1508V7.40137H104.084V15.1875C104.084 16.7159 103.124 17.6636 101.681 17.6636C100.238 17.6636 99.2781 16.7221 99.2781 15.1875V7.40137H96.4045V15.1508C96.4045 18.3484 98.5902 20.4454 101.681 20.4454Z" fill="white"/>
<path d="M114.496 20.4454C117.586 20.4454 119.772 18.3484 119.772 15.1508V7.40137H116.898V15.1875C116.898 16.7159 115.942 17.6636 114.496 17.6636C113.05 17.6636 112.093 16.7221 112.093 15.1875V7.40137H109.222V15.1508C109.222 18.3484 111.408 20.4454 114.496 20.4454Z" fill="white"/>
<path fill-rule="evenodd" clip-rule="evenodd" d="M127.882 10.1099H125.207V13.4725H127.882C128.111 13.4864 128.341 13.4531 128.557 13.3749C128.773 13.2967 128.971 13.1751 129.138 13.0176C129.305 12.8601 129.439 12.6701 129.53 12.4591C129.621 12.2482 129.668 12.0209 129.668 11.7912C129.668 11.5615 129.621 11.3341 129.53 11.1232C129.439 10.9123 129.305 10.7223 129.138 10.5648C128.971 10.4073 128.773 10.2857 128.557 10.2075C128.341 10.1292 128.111 10.096 127.882 10.1099ZM125.207 20.2284H122.337V7.38916H127.919C130.502 7.38916 132.434 9.30282 132.434 11.779C132.443 12.557 132.24 13.3228 131.846 13.9939C131.452 14.6651 130.883 15.2162 130.199 15.5879L133.391 20.2284H129.964L127.234 16.1627H125.207V20.2284Z" fill="white"/>
<path d="M57.8623 37.5095C59.0861 37.5319 60.2925 37.2179 61.3502 36.6018C62.4078 35.9856 63.2759 35.091 63.86 34.0153L61.3319 32.6428C60.9384 33.4119 60.2975 34.0262 59.5125 34.3869C58.7275 34.7475 57.8439 34.8336 57.004 34.6312C56.1641 34.4288 55.4168 33.9497 54.8822 33.271C54.3476 32.5923 54.057 31.7535 54.057 30.8896C54.057 30.0257 54.3476 29.1869 54.8822 28.5082C55.4168 27.8295 56.1641 27.3504 57.004 27.148C57.8439 26.9456 58.7275 27.0316 59.5125 27.3923C60.2975 27.753 60.9384 28.3673 61.3319 29.1364L63.86 27.7638C63.3163 26.7117 62.5029 25.823 61.5029 25.1884C60.503 24.5538 59.3524 24.1963 58.1689 24.1523C56.9855 24.1083 55.8115 24.3795 54.7673 24.9381C53.723 25.4968 52.8458 26.3227 52.2255 27.3316C51.6052 28.3404 51.2641 29.496 51.2369 30.6799C51.2097 31.8639 51.4976 33.0339 52.0709 34.0701C52.6443 35.1064 53.4827 35.9717 54.5002 36.5776C55.5178 37.1835 56.678 37.5083 57.8623 37.5186V37.5095Z" fill="#00B1EB"/>
<path d="M70.9889 37.5094C72.3003 37.5094 73.5822 37.1205 74.6726 36.392C75.763 35.6634 76.6129 34.6278 77.1147 33.4163C77.6166 32.2047 77.7479 30.8715 77.492 29.5853C77.2362 28.2991 76.6047 27.1176 75.6774 26.1903C74.7501 25.263 73.5686 24.6315 72.2824 24.3757C70.9962 24.1199 69.663 24.2512 68.4515 24.753C67.2399 25.2549 66.2043 26.1047 65.4758 27.1951C64.7472 28.2855 64.3583 29.5675 64.3583 30.8789C64.3623 32.6361 65.0622 34.3203 66.3048 35.5629C67.5474 36.8055 69.2316 37.5054 70.9889 37.5094ZM70.9889 34.7276C70.2227 34.7531 69.4664 34.5493 68.8168 34.1423C68.1672 33.7352 67.654 33.1435 67.3429 32.4428C67.0318 31.7422 66.937 30.9647 67.0707 30.2098C67.2044 29.455 67.5605 28.7573 68.0933 28.2061C68.626 27.6549 69.3113 27.2754 70.0611 27.1162C70.811 26.957 71.5913 27.0253 72.3021 27.3125C73.0129 27.5996 73.6217 28.0925 74.0506 28.7279C74.4794 29.3633 74.7088 30.1123 74.7092 30.8789C74.7207 31.881 74.3365 32.8472 73.64 33.5678C72.9434 34.2883 71.9908 34.7051 70.9889 34.7276Z" fill="#00B1EB"/>
<path d="M91.0487 37.2922V24.4683H88.1598V32.398L81.9267 24.4683H79.4505V37.2922H82.3241V29.3625L88.5756 37.2922H91.0487Z" fill="#00B1EB"/>
<path d="M99.4339 37.5095C100.658 37.5322 101.864 37.2184 102.922 36.6022C103.98 35.9861 104.848 35.0912 105.432 34.0153L102.904 32.6428C102.51 33.4119 101.869 34.0262 101.084 34.3869C100.299 34.7475 99.4156 34.8336 98.5757 34.6312C97.7358 34.4288 96.9885 33.9497 96.4539 33.271C95.9193 32.5923 95.6287 31.7535 95.6287 30.8896C95.6287 30.0257 95.9193 29.1869 96.4539 28.5082C96.9885 27.8295 97.7358 27.3504 98.5757 27.148C99.4156 26.9456 100.299 27.0316 101.084 27.3923C101.869 27.753 102.51 28.3673 102.904 29.1364L105.432 27.7638C104.888 26.7117 104.075 25.823 103.075 25.1884C102.075 24.5538 100.924 24.1963 99.7406 24.1523C98.5571 24.1083 97.3832 24.3795 96.3389 24.9381C95.2947 25.4968 94.4175 26.3227 93.7972 27.3316C93.1769 28.3404 92.8357 29.496 92.8086 30.6799C92.7814 31.8639 93.0692 33.0339 93.6426 34.0701C94.216 35.1064 95.0543 35.9717 96.0719 36.5776C97.0895 37.1835 98.2497 37.5083 99.4339 37.5186V37.5095Z" fill="#00B1EB"/>
<path fill-rule="evenodd" clip-rule="evenodd" d="M112.102 27.1769H109.439V30.5395H112.114C112.56 30.5395 112.988 30.3624 113.303 30.0471C113.618 29.7318 113.796 29.3041 113.796 28.8582C113.796 28.4123 113.618 27.9846 113.303 27.6693C112.988 27.354 112.56 27.1769 112.114 27.1769H112.102ZM109.439 37.2924H106.566V24.4531H112.151C114.731 24.4531 116.666 26.3698 116.666 28.8429C116.675 29.621 116.472 30.3868 116.078 31.0579C115.684 31.729 115.115 32.2801 114.431 32.6519L117.623 37.2802H114.181L111.454 33.2144H109.439V37.2924Z" fill="#00B1EB"/>
<path d="M118.861 37.2922H126.989V34.5471H121.734V32.2513H125.907V29.5061H121.734V27.2134H126.989V24.4683H118.861V37.2922Z" fill="#00B1EB"/>
<path d="M129.175 37.2922H137.304V34.5471H132.049V32.2513H136.221V29.5061H132.049V27.2134H137.304V24.4683H129.175V37.2922Z" fill="#00B1EB"/>
<path d="M141.803 37.2922H144.692V27.2134H148V24.4683H138.533V27.2134H141.803V37.2922Z" fill="#00B1EB"/>
</g>
<defs>
<clipPath id="clip0">
<rect y="1" width="148" height="42.6936" fill="white"/>
</clipPath>
</defs>
</svg>
