<svg width="256" height="256" viewBox="0 0 256 256" xmlns="http://www.w3.org/2000/svg">
<defs>
<linearGradient id="p2" x1="0" x2="1">
<stop offset="0%" stop-color="#FF9AA2" />
<stop offset="100%" stop-color="#FFB7C5" />
</linearGradient>
<linearGradient id="leaf2" x1="0" x2="1">
<stop offset="0%" stop-color="#6EE7B7" />
<stop offset="100%" stop-color="#1FA07A" />
</linearGradient>
<filter id="shadowSmall" x="-50%" y="-50%" width="200%" height="200%">
<feDropShadow dx="0" dy="1.8" stdDeviation="2" flood-opacity="0.18"/>
</filter>
</defs>
<circle cx="128" cy="128" r="118" fill="none" stroke="#FFE6F0" stroke-width="12" />
<g filter="url(#shadowSmall)">
<g transform="translate(128,36)">
<circle r="18" fill="url(#p2)"/>
<g transform="translate(-28,4) rotate(-26)">
<ellipse rx="11" ry="22" fill="#FFE7B2"/>
<ellipse rx="9" ry="18" fill="#FFF3EA" transform="translate(6,-6) rotate(18)"/>
</g>
<g transform="translate(34,10)">
<path d="M-6,0 C-18,16 -8,24 6,22" fill="none" stroke="url(#leaf2)" stroke-width="6" stroke-linecap="round"/>
</g>
</g>
<g transform="translate(60,190) rotate(-20)">
<circle r="14" fill="#FFD16B"/>
<ellipse rx="8" ry="15" fill="#FF9AA2" transform="translate(16,4) rotate(12)"/>
</g>
<g transform="translate(196,186) rotate(24)">
<circle r="16" fill="#D1B3FF"/>
<ellipse rx="9" ry="17" fill="#FFD3EA" transform="translate(-14,6) rotate(-20)"/>
</g>
</g>
<g transform="translate(128,128)">
<g transform="rotate(0) translate(0,-96)"><circle r="5" fill="rgba(255,150,180,0.95)"/></g>
<g transform="rotate(18) translate(0,-100)"><circle r="5" fill="rgba(255,150,180,0.95)"/></g>
<g transform="rotate(36) translate(0,-96)"><circle r="5" fill="rgba(255,150,180,0.95)"/></g>
<g transform="rotate(54) translate(0,-100)"><circle r="5" fill="rgba(255,150,180,0.95)"/></g>
<g transform="rotate(72) translate(0,-96)"><circle r="5" fill="rgba(255,150,180,0.95)"/></g>
<g transform="rotate(90) translate(0,-100)"><circle r="5" fill="rgba(255,150,180,0.95)"/></g>
<g transform="rotate(108) translate(0,-96)"><circle r="5" fill="rgba(255,150,180,0.95)"/></g>
<g transform="rotate(126) translate(0,-100)"><circle r="5" fill="rgba(255,150,180,0.95)"/></g>
<g transform="rotate(144) translate(0,-96)"><circle r="5" fill="rgba(255,150,180,0.95)"/></g>
<g transform="rotate(162) translate(0,-100)"><circle r="5" fill="rgba(255,150,180,0.95)"/></g>
<g transform="rotate(180) translate(0,-96)"><circle r="5" fill="rgba(255,150,180,0.95)"/></g>
<g transform="rotate(198) translate(0,-100)"><circle r="5" fill="rgba(255,150,180,0.95)"/></g>
<g transform="rotate(216) translate(0,-96)"><circle r="5" fill="rgba(255,150,180,0.95)"/></g>
<g transform="rotate(234) translate(0,-100)"><circle r="5" fill="rgba(255,150,180,0.95)"/></g>
<g transform="rotate(252) translate(0,-96)"><circle r="5" fill="rgba(255,150,180,0.95)"/></g>
<g transform="rotate(270) translate(0,-100)"><circle r="5" fill="rgba(255,150,180,0.95)"/></g>
<g transform="rotate(288) translate(0,-96)"><circle r="5" fill="rgba(255,150,180,0.95)"/></g>
<g transform="rotate(306) translate(0,-100)"><circle r="5" fill="rgba(255,150,180,0.95)"/></g>
<g transform="rotate(324) translate(0,-96)"><circle r="5" fill="rgba(255,150,180,0.95)"/></g>
<g transform="rotate(342) translate(0,-100)"><circle r="5" fill="rgba(255,150,180,0.95)"/></g>
</g>
<circle cx="128" cy="128" r="74" fill="none" stroke="#fff" stroke-width="5" />
</svg>