<svg width="256" height="256" viewBox="0 0 256 256" xmlns="http://www.w3.org/2000/svg">
  <defs>
    <linearGradient id="deep" x1="0" x2="1">
      <stop offset="0%" stop-color="#FF8FC1" />
      <stop offset="100%" stop-color="#B07CFF" />
    </linearGradient>
    <linearGradient id="greenDeep" x1="0" x2="1">
      <stop offset="0%" stop-color="#2EE59B" />
      <stop offset="100%" stop-color="#0B8B6B" />
    </linearGradient>
    <filter id="softShadow" x="-50%" y="-50%" width="200%" height="200%">
      <feDropShadow dx="0" dy="3" stdDeviation="3" flood-opacity="0.25"/>
    </filter>
  </defs>

  <!-- outer border -->
  <circle cx="128" cy="128" r="122" fill="none" stroke="#F0E8FF" stroke-width="10"/>

  <!-- flowers & leaves around -->
  <g transform="translate(128,128)" filter="url(#softShadow)">
    <!-- repeat big flowers every 40° -->
    <!-- template -->
    <g id="bloom">
      <path d="M0,-12 C8,-12 22,-6 18,4 C14,14 -6,20 -12,12 C-18,4 -10,-12 0,-12 Z" fill="url(#deep)"/>
      <circle r="6" fill="#FFD76B" transform="translate(10,6)" />
      <path d="M-16,20 C-8,34 6,34 16,20" fill="none" stroke="url(#greenDeep)" stroke-width="4" stroke-linecap="round"/>
    </g>

    <use href="#bloom" transform="rotate(0) translate(0,-92)"/>
    <use href="#bloom" transform="rotate(40) translate(0,-92)"/>
    <use href="#bloom" transform="rotate(80) translate(0,-92)"/>
    <use href="#bloom" transform="rotate(120) translate(0,-92)"/>
    <use href="#bloom" transform="rotate(160) translate(0,-92)"/>
    <use href="#bloom" transform="rotate(200) translate(0,-92)"/>
    <use href="#bloom" transform="rotate(240) translate(0,-92)"/>
    <use href="#bloom" transform="rotate(280) translate(0,-92)"/>
    <use href="#bloom" transform="rotate(320) translate(0,-92)"/>

    <!-- small blossoms in between -->
    <g id="mini"><circle r="5" fill="#FFDFEA"/></g>
    <use href="#mini" transform="rotate(20) translate(0,-74)"/>
    <use href="#mini" transform="rotate(60) translate(0,-74)"/>
    <use href="#mini" transform="rotate(100) translate(0,-74)"/>
    <use href="#mini" transform="rotate(140) translate(0,-74)"/>
    <use href="#mini" transform="rotate(180) translate(0,-74)"/>
    <use href="#mini" transform="rotate(220) translate(0,-74)"/>
    <use href="#mini" transform="rotate(260) translate(0,-74)"/>
    <use href="#mini" transform="rotate(300) translate(0,-74)"/>
    <use href="#mini" transform="rotate(340) translate(0,-74)"/>
  </g>

  <!-- inner profile border -->
  <circle cx="128" cy="128" r="74" fill="none" stroke="#fff" stroke-width="6" />
</svg>
