<svg xmlns="http://www.w3.org/2000/svg" xmlns:xlink="http://www.w3.org/1999/xlink" width="1080" zoomAndPan="magnify" viewBox="0 0 810 809.999993" height="1080" preserveAspectRatio="xMidYMid meet" version="1.0"><defs><clipPath id="db1b371996"><path d="M 396.902344 81 L 413.402344 81 L 413.402344 728.996094 L 396.902344 728.996094 Z M 396.902344 81 " clip-rule="nonzero"/></clipPath><clipPath id="5d334b4cdd"><path d="M 396.902344 56 L 413.402344 56 L 413.402344 703.976562 L 396.902344 703.976562 Z M 396.902344 56 " clip-rule="nonzero"/></clipPath></defs><g clip-path="url(#db1b371996)"><path fill="#017363" d="M 413.070312 81.050781 C 413.070312 91.191406 409.886719 96.296875 406.800781 101.234375 C 403.910156 105.871094 401.175781 110.25 401.175781 119.171875 C 401.175781 128.09375 403.910156 132.472656 406.800781 137.109375 C 409.886719 142.046875 413.070312 147.15625 413.070312 157.292969 C 413.070312 167.433594 409.886719 172.539062 406.800781 177.476562 C 403.910156 182.113281 401.175781 186.488281 401.175781 195.410156 C 401.175781 204.332031 403.910156 208.707031 406.800781 213.34375 C 409.886719 218.285156 413.070312 223.390625 413.070312 233.527344 C 413.070312 243.667969 409.886719 248.773438 406.800781 253.710938 C 403.910156 258.347656 401.175781 262.726562 401.175781 271.644531 C 401.175781 280.5625 403.910156 284.941406 406.800781 289.578125 C 409.886719 294.515625 413.070312 299.621094 413.070312 309.761719 C 413.070312 319.898438 409.886719 325.003906 406.800781 329.941406 C 403.910156 334.578125 401.175781 338.957031 401.175781 347.875 C 401.175781 356.796875 403.910156 361.175781 406.800781 365.8125 C 409.886719 370.75 413.070312 375.855469 413.070312 385.992188 C 413.070312 396.132812 409.886719 401.238281 406.800781 406.175781 C 403.910156 410.8125 401.175781 415.191406 401.175781 424.109375 C 401.175781 433.03125 403.910156 437.410156 406.800781 442.042969 C 409.886719 446.980469 413.070312 452.089844 413.070312 462.226562 C 413.070312 472.363281 409.886719 477.46875 406.800781 482.410156 C 403.910156 487.046875 401.175781 491.421875 401.175781 500.339844 C 401.175781 509.261719 403.910156 513.636719 406.800781 518.273438 C 409.886719 523.214844 413.070312 528.316406 413.070312 538.457031 C 413.070312 548.59375 409.886719 553.699219 406.800781 558.636719 C 403.910156 563.273438 401.175781 567.648438 401.175781 576.570312 C 401.175781 585.488281 403.910156 589.867188 406.800781 594.5 C 409.886719 599.441406 413.070312 604.546875 413.070312 614.683594 C 413.070312 624.820312 409.886719 629.925781 406.800781 634.867188 C 403.910156 639.496094 401.175781 643.875 401.175781 652.796875 C 401.175781 661.714844 403.910156 666.09375 406.800781 670.726562 C 409.886719 675.667969 413.070312 680.773438 413.070312 690.910156 C 413.070312 701.046875 409.886719 706.152344 406.800781 711.09375 C 403.910156 715.726562 401.175781 720.105469 401.175781 729.023438 L 396.929688 729.023438 C 396.929688 718.886719 400.113281 713.777344 403.199219 708.84375 C 406.089844 704.210938 408.824219 699.832031 408.824219 690.910156 C 408.824219 681.992188 406.089844 677.613281 403.199219 672.976562 C 400.113281 668.039062 396.929688 662.933594 396.929688 652.796875 C 396.929688 642.660156 400.113281 637.550781 403.199219 632.613281 C 406.089844 627.980469 408.824219 623.601562 408.824219 614.683594 C 408.824219 605.761719 406.089844 601.382812 403.199219 596.75 C 400.113281 591.8125 396.929688 586.707031 396.929688 576.570312 C 396.929688 566.433594 400.113281 561.328125 403.199219 556.386719 C 406.089844 551.75 408.824219 547.375 408.824219 538.457031 C 408.824219 529.539062 406.089844 525.160156 403.199219 520.523438 C 400.113281 515.585938 396.929688 510.480469 396.929688 500.339844 C 396.929688 490.203125 400.113281 485.097656 403.199219 480.160156 C 406.089844 475.523438 408.824219 471.144531 408.824219 462.226562 C 408.824219 453.304688 406.089844 448.929688 403.199219 444.292969 C 400.113281 439.355469 396.929688 434.246094 396.929688 424.109375 C 396.929688 413.972656 400.113281 408.863281 403.199219 403.929688 C 406.089844 399.292969 408.824219 394.914062 408.824219 385.992188 C 408.824219 377.074219 406.089844 372.695312 403.199219 368.058594 C 400.113281 363.121094 396.929688 358.015625 396.929688 347.875 C 396.929688 337.738281 400.113281 332.632812 403.199219 327.695312 C 406.089844 323.058594 408.824219 318.679688 408.824219 309.761719 C 408.824219 300.839844 406.089844 296.464844 403.199219 291.828125 C 400.113281 286.886719 396.929688 281.78125 396.929688 271.644531 C 396.929688 261.503906 400.113281 256.402344 403.199219 251.460938 C 406.089844 246.824219 408.824219 242.449219 408.824219 233.527344 C 408.824219 224.609375 406.089844 220.230469 403.199219 215.59375 C 400.113281 210.65625 396.929688 205.550781 396.929688 195.410156 C 396.929688 185.273438 400.113281 180.167969 403.199219 175.226562 C 406.089844 170.589844 408.824219 166.214844 408.824219 157.292969 C 408.824219 148.371094 406.089844 143.992188 403.199219 139.359375 C 400.113281 134.417969 396.929688 129.3125 396.929688 119.171875 C 396.929688 109.03125 400.113281 103.925781 403.199219 98.988281 C 406.089844 94.351562 408.824219 89.972656 408.824219 81.050781 L 413.070312 81.050781 " fill-opacity="1" fill-rule="nonzero"/></g><g clip-path="url(#5d334b4cdd)"><path fill="#9e0d33" d="M 413.070312 56.027344 C 413.070312 66.167969 409.886719 71.277344 406.800781 76.214844 C 403.910156 80.851562 401.175781 85.230469 401.175781 94.152344 C 401.175781 103.074219 403.910156 107.453125 406.800781 112.089844 C 409.886719 117.027344 413.070312 122.136719 413.070312 132.273438 C 413.070312 142.414062 409.886719 147.519531 406.800781 152.457031 C 403.910156 157.09375 401.175781 161.46875 401.175781 170.390625 C 401.175781 179.308594 403.910156 183.6875 406.800781 188.324219 C 409.886719 193.261719 413.070312 198.367188 413.070312 208.507812 C 413.070312 218.644531 409.886719 223.75 406.800781 228.691406 C 403.910156 233.328125 401.175781 237.703125 401.175781 246.621094 C 401.175781 255.542969 403.910156 259.921875 406.800781 264.558594 C 409.886719 269.496094 413.070312 274.601562 413.070312 284.738281 C 413.070312 294.878906 409.886719 299.984375 406.800781 304.921875 C 403.910156 309.558594 401.175781 313.933594 401.175781 322.855469 C 401.175781 331.777344 403.910156 336.15625 406.800781 340.789062 C 409.886719 345.726562 413.070312 350.835938 413.070312 360.972656 C 413.070312 371.109375 409.886719 376.21875 406.800781 381.15625 C 403.910156 385.792969 401.175781 390.167969 401.175781 399.089844 C 401.175781 408.011719 403.910156 412.390625 406.800781 417.023438 C 409.886719 421.960938 413.070312 427.070312 413.070312 437.207031 C 413.070312 447.34375 409.886719 452.449219 406.800781 457.390625 C 403.910156 462.023438 401.175781 466.402344 401.175781 475.320312 C 401.175781 484.242188 403.910156 488.617188 406.800781 493.253906 C 409.886719 498.191406 413.070312 503.296875 413.070312 513.433594 C 413.070312 523.574219 409.886719 528.675781 406.800781 533.617188 C 403.910156 538.253906 401.175781 542.628906 401.175781 551.550781 C 401.175781 560.46875 403.910156 564.84375 406.800781 569.480469 C 409.886719 574.421875 413.070312 579.527344 413.070312 589.664062 C 413.070312 599.800781 409.886719 604.90625 406.800781 609.847656 C 403.910156 614.476562 401.175781 618.855469 401.175781 627.777344 C 401.175781 636.695312 403.910156 641.074219 406.800781 645.707031 C 409.886719 650.648438 413.070312 655.753906 413.070312 665.890625 C 413.070312 676.027344 409.886719 681.132812 406.800781 686.074219 C 403.910156 690.707031 401.175781 695.082031 401.175781 704.003906 L 396.929688 704.003906 C 396.929688 693.867188 400.113281 688.757812 403.199219 683.820312 C 406.089844 679.191406 408.824219 674.8125 408.824219 665.890625 C 408.824219 656.972656 406.089844 652.59375 403.199219 647.957031 C 400.113281 643.019531 396.929688 637.914062 396.929688 627.777344 C 396.929688 617.640625 400.113281 612.53125 403.199219 607.59375 C 406.089844 602.960938 408.824219 598.582031 408.824219 589.664062 C 408.824219 580.742188 406.089844 576.363281 403.199219 571.730469 C 400.113281 566.792969 396.929688 561.6875 396.929688 551.550781 C 396.929688 541.410156 400.113281 536.304688 403.199219 531.367188 C 406.089844 526.730469 408.824219 522.355469 408.824219 513.433594 C 408.824219 504.515625 406.089844 500.140625 403.199219 495.503906 C 400.113281 490.566406 396.929688 485.457031 396.929688 475.320312 C 396.929688 465.183594 400.113281 460.078125 403.199219 455.136719 C 406.089844 450.503906 408.824219 446.125 408.824219 437.207031 C 408.824219 428.285156 406.089844 423.90625 403.199219 419.273438 C 400.113281 414.335938 396.929688 409.226562 396.929688 399.089844 C 396.929688 388.953125 400.113281 383.84375 403.199219 378.90625 C 406.089844 374.273438 408.824219 369.894531 408.824219 360.972656 C 408.824219 352.050781 406.089844 347.675781 403.199219 343.039062 C 400.113281 338.101562 396.929688 332.992188 396.929688 322.855469 C 396.929688 312.71875 400.113281 307.609375 403.199219 302.675781 C 406.089844 298.039062 408.824219 293.660156 408.824219 284.738281 C 408.824219 275.820312 406.089844 271.445312 403.199219 266.808594 C 400.113281 261.867188 396.929688 256.761719 396.929688 246.621094 C 396.929688 236.484375 400.113281 231.378906 403.199219 226.441406 C 406.089844 221.804688 408.824219 217.425781 408.824219 208.507812 C 408.824219 199.585938 406.089844 195.210938 403.199219 190.574219 C 400.113281 185.632812 396.929688 180.527344 396.929688 170.390625 C 396.929688 160.25 400.113281 155.148438 403.199219 150.207031 C 406.089844 145.570312 408.824219 141.191406 408.824219 132.273438 C 408.824219 123.351562 406.089844 118.972656 403.199219 114.339844 C 400.113281 109.398438 396.929688 104.292969 396.929688 94.152344 C 396.929688 84.011719 400.113281 78.90625 403.199219 73.964844 C 406.089844 69.332031 408.824219 64.953125 408.824219 56.027344 L 413.070312 56.027344 " fill-opacity="1" fill-rule="nonzero"/></g></svg>