<?xml version="1.0" encoding="UTF-8"?>
<svg width="500" height="500" viewBox="0 0 500 500" xmlns="http://www.w3.org/2000/svg">
  <defs>
    <radialGradient id="petalGradient1" cx="0.5" cy="0.5" r="0.5" fx="0.5" fy="0.5">
      <stop offset="0%" stop-color="#fff8e0"/>
      <stop offset="50%" stop-color="#ffd700"/>
      <stop offset="100%" stop-color="#d4af37"/>
    </radialGradient>
    <radialGradient id="petalGradient2" cx="0.5" cy="0.5" r="0.5" fx="0.5" fy="0.5">
      <stop offset="0%" stop-color="#fffaeb"/>
      <stop offset="50%" stop-color="#ffe066"/>
      <stop offset="100%" stop-color="#e5b80b"/>
    </radialGradient>
    <filter id="glow" x="-20%" y="-20%" width="140%" height="140%">
      <feGaussianBlur stdDeviation="3" result="blur"/>
      <feComposite in="SourceGraphic" in2="blur" operator="over"/>
    </filter>
  </defs>

  <!-- Main frame -->
  <rect x="10" y="10" width="480" height="480" fill="none" stroke="#d4af37" stroke-width="2" rx="30" ry="30"/>
  
  <!-- Corner flowers -->
  <!-- Top Left -->
  <g transform="translate(10, 10)" filter="url(#glow)">
    <!-- Large flower -->
    <circle cx="0" cy="0" r="5" fill="#fff8e0"/>
    <path d="M0,0 C-20,-15 -15,-40 0,-50 C15,-40 20,-15 0,0" fill="url(#petalGradient1)"/>
    <path d="M0,0 C-15,-20 -40,-15 -50,0 C-40,15 -15,20 0,0" fill="url(#petalGradient2)"/>
    <path d="M0,0 C-20,15 -15,40 0,50 C15,40 20,15 0,0" fill="url(#petalGradient1)"/>
    <path d="M0,0 C15,20 40,15 50,0 C40,-15 15,-20 0,0" fill="url(#petalGradient2)"/>
    
    <!-- Vines -->
    <path d="M0,0 C25,20 35,30 55,35" stroke="#d4af37" fill="none" stroke-width="1"/>
    <path d="M0,0 C20,25 30,35 35,55" stroke="#e5b80b" fill="none" stroke-width="1"/>
    
    <!-- Smaller accent flowers -->
    <g transform="translate(30, 15)">
      <circle cx="0" cy="0" r="3" fill="#fff8e0"/>
      <path d="M0,0 C-8,-6 -6,-16 0,-22 C6,-16 8,-6 0,0" fill="url(#petalGradient1)"/>
      <path d="M0,0 C-6,-8 -16,-6 -22,0 C-16,6 -6,8 0,0" fill="url(#petalGradient2)"/>
      <path d="M0,0 C-8,6 -6,16 0,22 C6,16 8,6 0,0" fill="url(#petalGradient1)"/>
      <path d="M0,0 C6,8 16,6 22,0 C16,-6 6,-8 0,0" fill="url(#petalGradient2)"/>
    </g>
    
    <g transform="translate(15, 30)">
      <circle cx="0" cy="0" r="3" fill="#fff8e0"/>
      <path d="M0,0 C-8,-6 -6,-16 0,-22 C6,-16 8,-6 0,0" fill="url(#petalGradient2)"/>
      <path d="M0,0 C-6,-8 -16,-6 -22,0 C-16,6 -6,8 0,0" fill="url(#petalGradient1)"/>
      <path d="M0,0 C-8,6 -6,16 0,22 C6,16 8,6 0,0" fill="url(#petalGradient2)"/>
      <path d="M0,0 C6,8 16,6 22,0 C16,-6 6,-8 0,0" fill="url(#petalGradient1)"/>
    </g>
    
    <!-- Small buds -->
    <circle cx="45" cy="20" r="2" fill="url(#petalGradient1)"/>
    <circle cx="20" cy="45" r="2" fill="url(#petalGradient2)"/>
  </g>
  
  <!-- Top Right -->
  <g transform="translate(490, 10) scale(-1, 1)" filter="url(#glow)">
    <!-- Large flower -->
    <circle cx="0" cy="0" r="5" fill="#fff8e0"/>
    <path d="M0,0 C-20,-15 -15,-40 0,-50 C15,-40 20,-15 0,0" fill="url(#petalGradient1)"/>
    <path d="M0,0 C-15,-20 -40,-15 -50,0 C-40,15 -15,20 0,0" fill="url(#petalGradient2)"/>
    <path d="M0,0 C-20,15 -15,40 0,50 C15,40 20,15 0,0" fill="url(#petalGradient1)"/>
    <path d="M0,0 C15,20 40,15 50,0 C40,-15 15,-20 0,0" fill="url(#petalGradient2)"/>
    
    <!-- Vines -->
    <path d="M0,0 C25,20 35,30 55,35" stroke="#d4af37" fill="none" stroke-width="1"/>
    <path d="M0,0 C20,25 30,35 35,55" stroke="#e5b80b" fill="none" stroke-width="1"/>
    
    <!-- Smaller accent flowers -->
    <g transform="translate(30, 15)">
      <circle cx="0" cy="0" r="3" fill="#fff8e0"/>
      <path d="M0,0 C-8,-6 -6,-16 0,-22 C6,-16 8,-6 0,0" fill="url(#petalGradient1)"/>
      <path d="M0,0 C-6,-8 -16,-6 -22,0 C-16,6 -6,8 0,0" fill="url(#petalGradient2)"/>
      <path d="M0,0 C-8,6 -6,16 0,22 C6,16 8,6 0,0" fill="url(#petalGradient1)"/>
      <path d="M0,0 C6,8 16,6 22,0 C16,-6 6,-8 0,0" fill="url(#petalGradient2)"/>
    </g>
    
    <g transform="translate(15, 30)">
      <circle cx="0" cy="0" r="3" fill="#fff8e0"/>
      <path d="M0,0 C-8,-6 -6,-16 0,-22 C6,-16 8,-6 0,0" fill="url(#petalGradient2)"/>
      <path d="M0,0 C-6,-8 -16,-6 -22,0 C-16,6 -6,8 0,0" fill="url(#petalGradient1)"/>
      <path d="M0,0 C-8,6 -6,16 0,22 C6,16 8,6 0,0" fill="url(#petalGradient2)"/>
      <path d="M0,0 C6,8 16,6 22,0 C16,-6 6,-8 0,0" fill="url(#petalGradient1)"/>
    </g>
    
    <!-- Small buds -->
    <circle cx="45" cy="20" r="2" fill="url(#petalGradient1)"/>
    <circle cx="20" cy="45" r="2" fill="url(#petalGradient2)"/>
  </g>
  
  <!-- Bottom Left -->
  <g transform="translate(10, 490) scale(1, -1)" filter="url(#glow)">
    <!-- Large flower -->
    <circle cx="0" cy="0" r="5" fill="#fff8e0"/>
    <path d="M0,0 C-20,-15 -15,-40 0,-50 C15,-40 20,-15 0,0" fill="url(#petalGradient1)"/>
    <path d="M0,0 C-15,-20 -40,-15 -50,0 C-40,15 -15,20 0,0" fill="url(#petalGradient2)"/>
    <path d="M0,0 C-20,15 -15,40 0,50 C15,40 20,15 0,0" fill="url(#petalGradient1)"/>
    <path d="M0,0 C15,20 40,15 50,0 C40,-15 15,-20 0,0" fill="url(#petalGradient2)"/>
    
    <!-- Vines -->
    <path d="M0,0 C25,20 35,30 55,35" stroke="#d4af37" fill="none" stroke-width="1"/>
    <path d="M0,0 C20,25 30,35 35,55" stroke="#e5b80b" fill="none" stroke-width="1"/>
    
    <!-- Smaller accent flowers -->
    <g transform="translate(30, 15)">
      <circle cx="0" cy="0" r="3" fill="#fff8e0"/>
      <path d="M0,0 C-8,-6 -6,-16 0,-22 C6,-16 8,-6 0,0" fill="url(#petalGradient1)"/>
      <path d="M0,0 C-6,-8 -16,-6 -22,0 C-16,6 -6,8 0,0" fill="url(#petalGradient2)"/>
      <path d="M0,0 C-8,6 -6,16 0,22 C6,16 8,6 0,0" fill="url(#petalGradient1)"/>
      <path d="M0,0 C6,8 16,6 22,0 C16,-6 6,-8 0,0" fill="url(#petalGradient2)"/>
    </g>
    
    <g transform="translate(15, 30)">
      <circle cx="0" cy="0" r="3" fill="#fff8e0"/>
      <path d="M0,0 C-8,-6 -6,-16 0,-22 C6,-16 8,-6 0,0" fill="url(#petalGradient2)"/>
      <path d="M0,0 C-6,-8 -16,-6 -22,0 C-16,6 -6,8 0,0" fill="url(#petalGradient1)"/>
      <path d="M0,0 C-8,6 -6,16 0,22 C6,16 8,6 0,0" fill="url(#petalGradient2)"/>
      <path d="M0,0 C6,8 16,6 22,0 C16,-6 6,-8 0,0" fill="url(#petalGradient1)"/>
    </g>
    
    <!-- Small buds -->
    <circle cx="45" cy="20" r="2" fill="url(#petalGradient1)"/>
    <circle cx="20" cy="45" r="2" fill="url(#petalGradient2)"/>
  </g>
  
  <!-- Bottom Right -->
  <g transform="translate(490, 490) scale(-1, -1)" filter="url(#glow)">
    <!-- Large flower -->
    <circle cx="0" cy="0" r="5" fill="#fff8e0"/>
    <path d="M0,0 C-20,-15 -15,-40 0,-50 C15,-40 20,-15 0,0" fill="url(#petalGradient1)"/>
    <path d="M0,0 C-15,-20 -40,-15 -50,0 C-40,15 -15,20 0,0" fill="url(#petalGradient2)"/>
    <path d="M0,0 C-20,15 -15,40 0,50 C15,40 20,15 0,0" fill="url(#petalGradient1)"/>
    <path d="M0,0 C15,20 40,15 50,0 C40,-15 15,-20 0,0" fill="url(#petalGradient2)"/>
    
    <!-- Vines -->
    <path d="M0,0 C25,20 35,30 55,35" stroke="#d4af37" fill="none" stroke-width="1"/>
    <path d="M0,0 C20,25 30,35 35,55" stroke="#e5b80b" fill="none" stroke-width="1"/>
    
    <!-- Smaller accent flowers -->
    <g transform="translate(30, 15)">
      <circle cx="0" cy="0" r="3" fill="#fff8e0"/>
      <path d="M0,0 C-8,-6 -6,-16 0,-22 C6,-16 8,-6 0,0" fill="url(#petalGradient1)"/>
      <path d="M0,0 C-6,-8 -16,-6 -22,0 C-16,6 -6,8 0,0" fill="url(#petalGradient2)"/>
      <path d="M0,0 C-8,6 -6,16 0,22 C6,16 8,6 0,0" fill="url(#petalGradient1)"/>
      <path d="M0,0 C6,8 16,6 22,0 C16,-6 6,-8 0,0" fill="url(#petalGradient2)"/>
    </g>
    
    <g transform="translate(15, 30)">
      <circle cx="0" cy="0" r="3" fill="#fff8e0"/>
      <path d="M0,0 C-8,-6 -6,-16 0,-22 C6,-16 8,-6 0,0" fill="url(#petalGradient2)"/>
      <path d="M0,0 C-6,-8 -16,-6 -22,0 C-16,6 -6,8 0,0" fill="url(#petalGradient1)"/>
      <path d="M0,0 C-8,6 -6,16 0,22 C6,16 8,6 0,0" fill="url(#petalGradient2)"/>
      <path d="M0,0 C6,8 16,6 22,0 C16,-6 6,-8 0,0" fill="url(#petalGradient1)"/>
    </g>
    
    <!-- Small buds -->
    <circle cx="45" cy="20" r="2" fill="url(#petalGradient1)"/>
    <circle cx="20" cy="45" r="2" fill="url(#petalGradient2)"/>
  </g>
  
  <!-- Side flowers -->
  <g transform="translate(250, 10)" filter="url(#glow)">
    <circle cx="0" cy="0" r="4" fill="#fff8e0"/>
    <path d="M0,0 C-12,-8 -8,-22 0,-30 C8,-22 12,-8 0,0" fill="url(#petalGradient1)"/>
    <path d="M0,0 C-8,-12 -22,-8 -30,0 C-22,8 -8,12 0,0" fill="url(#petalGradient2)"/>
    <path d="M0,0 C-12,8 -8,22 0,30 C8,22 12,8 0,0" fill="url(#petalGradient1)"/>
    <path d="M0,0 C8,12 22,8 30,0 C22,-8 8,-12 0,0" fill="url(#petalGradient2)"/>
  </g>
  
  <g transform="translate(10, 250)" filter="url(#glow)">
    <circle cx="0" cy="0" r="4" fill="#fff8e0"/>
    <path d="M0,0 C-12,-8 -8,-22 0,-30 C8,-22 12,-8 0,0" fill="url(#petalGradient1)"/>
    <path d="M0,0 C-8,-12 -22,-8 -30,0 C-22,8 -8,12 0,0" fill="url(#petalGradient2)"/>
    <path d="M0,0 C-12,8 -8,22 0,30 C8,22 12,8 0,0" fill="url(#petalGradient1)"/>
    <path d="M0,0 C8,12 22,8 30,0 C22,-8 8,-12 0,0" fill="url(#petalGradient2)"/>
  </g>
  
  <g transform="translate(490, 250)" filter="url(#glow)">
    <circle cx="0" cy="0" r="4" fill="#fff8e0"/>
    <path d="M0,0 C-12,-8 -8,-22 0,-30 C8,-22 12,-8 0,0" fill="url(#petalGradient1)"/>
    <path d="M0,0 C-8,-12 -22,-8 -30,0 C-22,8 -8,12 0,0" fill="url(#petalGradient2)"/>
    <path d="M0,0 C-12,8 -8,22 0,30 C8,22 12,8 0,0" fill="url(#petalGradient1)"/>
    <path d="M0,0 C8,12 22,8 30,0 C22,-8 8,-12 0,0" fill="url(#petalGradient2)"/>
  </g>
  
  <g transform="translate(250, 490)" filter="url(#glow)">
    <circle cx="0" cy="0" r="4" fill="#fff8e0"/>
    <path d="M0,0 C-12,-8 -8,-22 0,-30 C8,-22 12,-8 0,0" fill="url(#petalGradient1)"/>
    <path d="M0,0 C-8,-12 -22,-8 -30,0 C-22,8 -8,12 0,0" fill="url(#petalGradient2)"/>
    <path d="M0,0 C-12,8 -8,22 0,30 C8,22 12,8 0,0" fill="url(#petalGradient1)"/>
    <path d="M0,0 C8,12 22,8 30,0 C22,-8 8,-12 0,0" fill="url(#petalGradient2)"/>
  </g>
</svg>
