<?xml version="1.0" encoding="UTF-8"?>
<svg width="500" height="500" viewBox="0 0 500 500" xmlns="http://www.w3.org/2000/svg">
  <defs>
    <radialGradient id="petalGradient1" cx="0.5" cy="0.5" r="0.5" fx="0.5" fy="0.5">
      <stop offset="0%" stop-color="#ffffff"/>
      <stop offset="50%" stop-color="#e5e4e2"/>
      <stop offset="100%" stop-color="#c0c0c0"/>
    </radialGradient>
    <radialGradient id="petalGradient2" cx="0.5" cy="0.5" r="0.5" fx="0.5" fy="0.5">
      <stop offset="0%" stop-color="#ffffff"/>
      <stop offset="50%" stop-color="#e0e0fb"/>
      <stop offset="100%" stop-color="#c9c9f9"/>
    </radialGradient>
    <filter id="glow" x="-20%" y="-20%" width="140%" height="140%">
      <feGaussianBlur stdDeviation="3" result="blur"/>
      <feComposite in="SourceGraphic" in2="blur" operator="over"/>
    </filter>
  </defs>

  <!-- Main frame -->
  <rect x="10" y="10" width="480" height="480" fill="none" stroke="#e0e0e0" stroke-width="2" rx="30" ry="30"/>
  
  <!-- Corner flowers -->
  <!-- Top Left -->
  <g transform="translate(10, 10)" filter="url(#glow)">
    <!-- Large flower -->
    <circle cx="0" cy="0" r="5" fill="white"/>
    <path d="M0,0 C-20,-15 -15,-40 0,-55 C15,-40 20,-15 0,0" fill="url(#petalGradient1)"/>
    <path d="M0,0 C-15,-20 -40,-15 -55,0 C-40,15 -15,20 0,0" fill="url(#petalGradient2)"/>
    <path d="M0,0 C-20,15 -15,40 0,55 C15,40 20,15 0,0" fill="url(#petalGradient1)"/>
    <path d="M0,0 C15,20 40,15 55,0 C40,-15 15,-20 0,0" fill="url(#petalGradient2)"/>
    <path d="M0,0 C-18,-18 -45,-10 -55,-35 C-30,-45 -18,-18 0,0" fill="url(#petalGradient1)"/>
    <path d="M0,0 C-18,18 -10,45 -35,55 C-45,30 -18,18 0,0" fill="url(#petalGradient2)"/>
    <path d="M0,0 C18,18 45,10 55,35 C30,45 18,18 0,0" fill="url(#petalGradient1)"/>
    <path d="M0,0 C18,-18 10,-45 35,-55 C45,-30 18,-18 0,0" fill="url(#petalGradient2)"/>
    
    <!-- Vines -->
    <path d="M0,0 C30,25 45,35 70,40" stroke="#a0a0a0" fill="none" stroke-width="1"/>
    <path d="M0,0 C25,30 35,45 40,70" stroke="#b0b0b0" fill="none" stroke-width="1"/>
    
    <!-- Smaller accent flowers -->
    <g transform="translate(40, 20)">
      <circle cx="0" cy="0" r="3" fill="white"/>
      <path d="M0,0 C-10,-8 -8,-20 0,-28 C8,-20 10,-8 0,0" fill="url(#petalGradient1)"/>
      <path d="M0,0 C-8,-10 -20,-8 -28,0 C-20,8 -8,10 0,0" fill="url(#petalGradient2)"/>
      <path d="M0,0 C-10,8 -8,20 0,28 C8,20 10,8 0,0" fill="url(#petalGradient1)"/>
      <path d="M0,0 C8,10 20,8 28,0 C20,-8 8,-10 0,0" fill="url(#petalGradient2)"/>
    </g>
    
    <g transform="translate(20, 40)">
      <circle cx="0" cy="0" r="3" fill="white"/>
      <path d="M0,0 C-10,-8 -8,-20 0,-28 C8,-20 10,-8 0,0" fill="url(#petalGradient2)"/>
      <path d="M0,0 C-8,-10 -20,-8 -28,0 C-20,8 -8,10 0,0" fill="url(#petalGradient1)"/>
      <path d="M0,0 C-10,8 -8,20 0,28 C8,20 10,8 0,0" fill="url(#petalGradient2)"/>
      <path d="M0,0 C8,10 20,8 28,0 C20,-8 8,-10 0,0" fill="url(#petalGradient1)"/>
    </g>
    
    <!-- Small buds -->
    <circle cx="55" cy="25" r="2" fill="url(#petalGradient1)"/>
    <circle cx="25" cy="55" r="2" fill="url(#petalGradient2)"/>
  </g>
  
  <!-- Top Right -->
  <g transform="translate(490, 10) scale(-1, 1)" filter="url(#glow)">
    <!-- Large flower -->
    <circle cx="0" cy="0" r="5" fill="white"/>
    <path d="M0,0 C-20,-15 -15,-40 0,-55 C15,-40 20,-15 0,0" fill="url(#petalGradient1)"/>
    <path d="M0,0 C-15,-20 -40,-15 -55,0 C-40,15 -15,20 0,0" fill="url(#petalGradient2)"/>
    <path d="M0,0 C-20,15 -15,40 0,55 C15,40 20,15 0,0" fill="url(#petalGradient1)"/>
    <path d="M0,0 C15,20 40,15 55,0 C40,-15 15,-20 0,0" fill="url(#petalGradient2)"/>
    <path d="M0,0 C-18,-18 -45,-10 -55,-35 C-30,-45 -18,-18 0,0" fill="url(#petalGradient1)"/>
    <path d="M0,0 C-18,18 -10,45 -35,55 C-45,30 -18,18 0,0" fill="url(#petalGradient2)"/>
    <path d="M0,0 C18,18 45,10 55,35 C30,45 18,18 0,0" fill="url(#petalGradient1)"/>
    <path d="M0,0 C18,-18 10,-45 35,-55 C45,-30 18,-18 0,0" fill="url(#petalGradient2)"/>
    
    <!-- Vines -->
    <path d="M0,0 C30,25 45,35 70,40" stroke="#a0a0a0" fill="none" stroke-width="1"/>
    <path d="M0,0 C25,30 35,45 40,70" stroke="#b0b0b0" fill="none" stroke-width="1"/>
    
    <!-- Smaller accent flowers -->
    <g transform="translate(40, 20)">
      <circle cx="0" cy="0" r="3" fill="white"/>
      <path d="M0,0 C-10,-8 -8,-20 0,-28 C8,-20 10,-8 0,0" fill="url(#petalGradient1)"/>
      <path d="M0,0 C-8,-10 -20,-8 -28,0 C-20,8 -8,10 0,0" fill="url(#petalGradient2)"/>
      <path d="M0,0 C-10,8 -8,20 0,28 C8,20 10,8 0,0" fill="url(#petalGradient1)"/>
      <path d="M0,0 C8,10 20,8 28,0 C20,-8 8,-10 0,0" fill="url(#petalGradient2)"/>
    </g>
    
    <g transform="translate(20, 40)">
      <circle cx="0" cy="0" r="3" fill="white"/>
      <path d="M0,0 C-10,-8 -8,-20 0,-28 C8,-20 10,-8 0,0" fill="url(#petalGradient2)"/>
      <path d="M0,0 C-8,-10 -20,-8 -28,0 C-20,8 -8,10 0,0" fill="url(#petalGradient1)"/>
      <path d="M0,0 C-10,8 -8,20 0,28 C8,20 10,8 0,0" fill="url(#petalGradient2)"/>
      <path d="M0,0 C8,10 20,8 28,0 C20,-8 8,-10 0,0" fill="url(#petalGradient1)"/>
    </g>
    
    <!-- Small buds -->
    <circle cx="55" cy="25" r="2" fill="url(#petalGradient1)"/>
    <circle cx="25" cy="55" r="2" fill="url(#petalGradient2)"/>
  </g>
  
  <!-- Bottom Left -->
  <g transform="translate(10, 490) scale(1, -1)" filter="url(#glow)">
    <!-- Large flower -->
    <circle cx="0" cy="0" r="5" fill="white"/>
    <path d="M0,0 C-20,-15 -15,-40 0,-55 C15,-40 20,-15 0,0" fill="url(#petalGradient1)"/>
    <path d="M0,0 C-15,-20 -40,-15 -55,0 C-40,15 -15,20 0,0" fill="url(#petalGradient2)"/>
    <path d="M0,0 C-20,15 -15,40 0,55 C15,40 20,15 0,0" fill="url(#petalGradient1)"/>
    <path d="M0,0 C15,20 40,15 55,0 C40,-15 15,-20 0,0" fill="url(#petalGradient2)"/>
    <path d="M0,0 C-18,-18 -45,-10 -55,-35 C-30,-45 -18,-18 0,0" fill="url(#petalGradient1)"/>
    <path d="M0,0 C-18,18 -10,45 -35,55 C-45,30 -18,18 0,0" fill="url(#petalGradient2)"/>
    <path d="M0,0 C18,18 45,10 55,35 C30,45 18,18 0,0" fill="url(#petalGradient1)"/>
    <path d="M0,0 C18,-18 10,-45 35,-55 C45,-30 18,-18 0,0" fill="url(#petalGradient2)"/>
    
    <!-- Vines -->
    <path d="M0,0 C30,25 45,35 70,40" stroke="#a0a0a0" fill="none" stroke-width="1"/>
    <path d="M0,0 C25,30 35,45 40,70" stroke="#b0b0b0" fill="none" stroke-width="1"/>
    
    <!-- Smaller accent flowers -->
    <g transform="translate(40, 20)">
      <circle cx="0" cy="0" r="3" fill="white"/>
      <path d="M0,0 C-10,-8 -8,-20 0,-28 C8,-20 10,-8 0,0" fill="url(#petalGradient1)"/>
      <path d="M0,0 C-8,-10 -20,-8 -28,0 C-20,8 -8,10 0,0" fill="url(#petalGradient2)"/>
      <path d="M0,0 C-10,8 -8,20 0,28 C8,20 10,8 0,0" fill="url(#petalGradient1)"/>
      <path d="M0,0 C8,10 20,8 28,0 C20,-8 8,-10 0,0" fill="url(#petalGradient2)"/>
    </g>
    
    <g transform="translate(20, 40)">
      <circle cx="0" cy="0" r="3" fill="white"/>
      <path d="M0,0 C-10,-8 -8,-20 0,-28 C8,-20 10,-8 0,0" fill="url(#petalGradient2)"/>
      <path d="M0,0 C-8,-10 -20,-8 -28,0 C-20,8 -8,10 0,0" fill="url(#petalGradient1)"/>
      <path d="M0,0 C-10,8 -8,20 0,28 C8,20 10,8 0,0" fill="url(#petalGradient2)"/>
      <path d="M0,0 C8,10 20,8 28,0 C20,-8 8,-10 0,0" fill="url(#petalGradient1)"/>
    </g>
    
    <!-- Small buds -->
    <circle cx="55" cy="25" r="2" fill="url(#petalGradient1)"/>
    <circle cx="25" cy="55" r="2" fill="url(#petalGradient2)"/>
  </g>
  
  <!-- Bottom Right -->
  <g transform="translate(490, 490) scale(-1, -1)" filter="url(#glow)">
    <!-- Large flower -->
    <circle cx="0" cy="0" r="5" fill="white"/>
    <path d="M0,0 C-20,-15 -15,-40 0,-55 C15,-40 20,-15 0,0" fill="url(#petalGradient1)"/>
    <path d="M0,0 C-15,-20 -40,-15 -55,0 C-40,15 -15,20 0,0" fill="url(#petalGradient2)"/>
    <path d="M0,0 C-20,15 -15,40 0,55 C15,40 20,15 0,0" fill="url(#petalGradient1)"/>
    <path d="M0,0 C15,20 40,15 55,0 C40,-15 15,-20 0,0" fill="url(#petalGradient2)"/>
    <path d="M0,0 C-18,-18 -45,-10 -55,-35 C-30,-45 -18,-18 0,0" fill="url(#petalGradient1)"/>
    <path d="M0,0 C-18,18 -10,45 -35,55 C-45,30 -18,18 0,0" fill="url(#petalGradient2)"/>
    <path d="M0,0 C18,18 45,10 55,35 C30,45 18,18 0,0" fill="url(#petalGradient1)"/>
    <path d="M0,0 C18,-18 10,-45 35,-55 C45,-30 18,-18 0,0" fill="url(#petalGradient2)"/>
    
    <!-- Vines -->
    <path d="M0,0 C30,25 45,35 70,40" stroke="#a0a0a0" fill="none" stroke-width="1"/>
    <path d="M0,0 C25,30 35,45 40,70" stroke="#b0b0b0" fill="none" stroke-width="1"/>
    
    <!-- Smaller accent flowers -->
    <g transform="translate(40, 20)">
      <circle cx="0" cy="0" r="3" fill="white"/>
      <path d="M0,0 C-10,-8 -8,-20 0,-28 C8,-20 10,-8 0,0" fill="url(#petalGradient1)"/>
      <path d="M0,0 C-8,-10 -20,-8 -28,0 C-20,8 -8,10 0,0" fill="url(#petalGradient2)"/>
      <path d="M0,0 C-10,8 -8,20 0,28 C8,20 10,8 0,0" fill="url(#petalGradient1)"/>
      <path d="M0,0 C8,10 20,8 28,0 C20,-8 8,-10 0,0" fill="url(#petalGradient2)"/>
    </g>
    
    <g transform="translate(20, 40)">
      <circle cx="0" cy="0" r="3" fill="white"/>
      <path d="M0,0 C-10,-8 -8,-20 0,-28 C8,-20 10,-8 0,0" fill="url(#petalGradient2)"/>
      <path d="M0,0 C-8,-10 -20,-8 -28,0 C-20,8 -8,10 0,0" fill="url(#petalGradient1)"/>
      <path d="M0,0 C-10,8 -8,20 0,28 C8,20 10,8 0,0" fill="url(#petalGradient2)"/>
      <path d="M0,0 C8,10 20,8 28,0 C20,-8 8,-10 0,0" fill="url(#petalGradient1)"/>
    </g>
    
    <!-- Small buds -->
    <circle cx="55" cy="25" r="2" fill="url(#petalGradient1)"/>
    <circle cx="25" cy="55" r="2" fill="url(#petalGradient2)"/>
  </g>
  
  <!-- Side flowers -->
  <g transform="translate(250, 10)" filter="url(#glow)">
    <circle cx="0" cy="0" r="4" fill="white"/>
    <path d="M0,0 C-16,-12 -12,-32 0,-44 C12,-32 16,-12 0,0" fill="url(#petalGradient1)"/>
    <path d="M0,0 C-12,-16 -32,-12 -44,0 C-32,12 -12,16 0,0" fill="url(#petalGradient2)"/>
    <path d="M0,0 C-16,12 -12,32 0,44 C12,32 16,12 0,0" fill="url(#petalGradient1)"/>
    <path d="M0,0 C12,16 32,12 44,0 C32,-12 12,-16 0,0" fill="url(#petalGradient2)"/>
  </g>
  
  <g transform="translate(10, 250)" filter="url(#glow)">
    <circle cx="0" cy="0" r="4" fill="white"/>
    <path d="M0,0 C-16,-12 -12,-32 0,-44 C12,-32 16,-12 0,0" fill="url(#petalGradient1)"/>
    <path d="M0,0 C-12,-16 -32,-12 -44,0 C-32,12 -12,16 0,0" fill="url(#petalGradient2)"/>
    <path d="M0,0 C-16,12 -12,32 0,44 C12,32 16,12 0,0" fill="url(#petalGradient1)"/>
    <path d="M0,0 C12,16 32,12 44,0 C32,-12 12,-16 0,0" fill="url(#petalGradient2)"/>
  </g>
  
  <g transform="translate(490, 250)" filter="url(#glow)">
    <circle cx="0" cy="0" r="4" fill="white"/>
    <path d="M0,0 C-16,-12 -12,-32 0,-44 C12,-32 16,-12 0,0" fill="url(#petalGradient1)"/>
    <path d="M0,0 C-12,-16 -32,-12 -44,0 C-32,12 -12,16 0,0" fill="url(#petalGradient2)"/>
    <path d="M0,0 C-16,12 -12,32 0,44 C12,32 16,12 0,0" fill="url(#petalGradient1)"/>
    <path d="M0,0 C12,16 32,12 44,0 C32,-12 12,-16 0,0" fill="url(#petalGradient2)"/>
  </g>
  
  <g transform="translate(250, 490)" filter="url(#glow)">
    <circle cx="0" cy="0" r="4" fill="white"/>
    <path d="M0,0 C-16,-12 -12,-32 0,-44 C12,-32 16,-12 0,0" fill="url(#petalGradient1)"/>
    <path d="M0,0 C-12,-16 -32,-12 -44,0 C-32,12 -12,16 0,0" fill="url(#petalGradient2)"/>
    <path d="M0,0 C-16,12 -12,32 0,44 C12,32 16,12 0,0" fill="url(#petalGradient1)"/>
    <path d="M0,0 C12,16 32,12 44,0 C32,-12 12,-16 0,0" fill="url(#petalGradient2)"/>
  </g>
</svg>
