<?xml version="1.0" encoding="UTF-8"?>
<svg width="500" height="500" viewBox="0 0 500 500" xmlns="http://www.w3.org/2000/svg">
  <defs>
    <linearGradient id="platinumGradient" x1="0%" y1="0%" x2="100%" y2="100%">
      <stop offset="0%" stop-color="#e5e4e2" stop-opacity="1"/>
      <stop offset="25%" stop-color="#ffffff" stop-opacity="1"/>
      <stop offset="50%" stop-color="#e5e4e2" stop-opacity="1"/>
      <stop offset="75%" stop-color="#ffffff" stop-opacity="1"/>
      <stop offset="100%" stop-color="#e5e4e2" stop-opacity="1"/>
    </linearGradient>
    <filter id="glow" x="-20%" y="-20%" width="140%" height="140%">
      <feGaussianBlur stdDeviation="8" result="blur"/>
      <feComposite in="SourceGraphic" in2="blur" operator="over"/>
    </filter>
  </defs>
  
  <!-- Outer decorative border -->
  <path d="M 20,20 L 480,20 L 480,480 L 20,480 Z" fill="none" stroke="url(#platinumGradient)" stroke-width="15" stroke-linecap="round" stroke-linejoin="round"/>
  
  <!-- Corner flourishes -->
  <path d="M 20,20 C 60,50 50,60 80,80" fill="none" stroke="url(#platinumGradient)" stroke-width="8" filter="url(#glow)"/>
  <path d="M 480,20 C 440,50 450,60 420,80" fill="none" stroke="url(#platinumGradient)" stroke-width="8" filter="url(#glow)"/>
  <path d="M 20,480 C 60,450 50,440 80,420" fill="none" stroke="url(#platinumGradient)" stroke-width="8" filter="url(#glow)"/>
  <path d="M 480,480 C 440,450 450,440 420,420" fill="none" stroke="url(#platinumGradient)" stroke-width="8" filter="url(#glow)"/>
  
  <!-- Decorative elements at midpoints -->
  <circle cx="250" cy="20" r="10" fill="url(#platinumGradient)" filter="url(#glow)"/>
  <circle cx="250" cy="480" r="10" fill="url(#platinumGradient)" filter="url(#glow)"/>
  <circle cx="20" cy="250" r="10" fill="url(#platinumGradient)" filter="url(#glow)"/>
  <circle cx="480" cy="250" r="10" fill="url(#platinumGradient)" filter="url(#glow)"/>
  
  <!-- Inner border for depth -->
  <path d="M 40,40 L 460,40 L 460,460 L 40,460 Z" fill="none" stroke="url(#platinumGradient)" stroke-width="5" stroke-opacity="0.6"/>
</svg>
