<svg width="72" height="71" viewBox="0 0 72 71" fill="none" xmlns="http://www.w3.org/2000/svg">
         <path fillRule="evenodd" clipRule="evenodd" d="M36.6016 2.47412C57.2382 2.47412 70.2309 20.8638 70.2309 41.5004C70.2309 62.137 57.2382 67.2828 36.6016 67.2828C15.965 67.2828 1.85132 62.137 1.85132 41.5004C1.85132 20.8638 15.965 2.47412 36.6016 2.47412Z" fill="#ECF5FC"/>
         <path fillRule="evenodd" clipRule="evenodd" d="M37.0854 22.553C46.7731 22.553 54.6265 30.4064 54.6265 40.0942C54.6265 49.7819 46.7731 57.6353 37.0854 57.6353C27.3976 57.6353 19.5442 49.7819 19.5442 40.0942C19.5442 30.4064 27.3976 22.553 37.0854 22.553Z" fill="#05C583"/>
         <path d="M29.4866 40.2902C35.4018 45.4059 35.5906 45.4121 35.5906 45.4121L44.8505 34.376" stroke="#F3F9FF" strokeWidth="6" strokeLinecap="round" strokeLinejoin="round"/>
         <path fillRule="evenodd" clipRule="evenodd" d="M26.3518 4.59904C26.4156 4.54271 26.4802 4.51486 26.512 4.48793C26.6088 4.40375 26.673 4.2648 26.7695 4.1814C26.673 4.32035 26.512 4.45931 26.3518 4.59904Z" fill="#203B71"/>
         <path fillRule="evenodd" clipRule="evenodd" d="M26.3518 4.59904C26.4156 4.54271 26.4802 4.51486 26.512 4.48793C26.6088 4.40375 26.673 4.2648 26.7695 4.1814C26.673 4.32035 26.512 4.45931 26.3518 4.59904Z" fill="#203B71"/>
         <path fillRule="evenodd" clipRule="evenodd" d="M22.5203 4.778C22.5842 4.72098 22.6482 4.69241 22.6801 4.66562C22.7769 4.58099 22.8409 4.44251 22.9379 4.36035C22.8411 4.49952 22.6801 4.63704 22.5203 4.778Z" fill="#203B71"/>
         <path fillRule="evenodd" clipRule="evenodd" d="M18.8575 40.4308L18.9235 40.1385L18.5059 40.0132" fill="#37639A"/>
      </svg>

